<?xml version="1.0" encoding="utf-8"?>
<!-- Generator: Adobe Illustrator 25.2.0, SVG Export Plug-In . SVG Version: 6.00 Build 0)  -->
<svg version="1.1" id="Layer_1" xmlns="http://www.w3.org/2000/svg" xmlns:xlink="http://www.w3.org/1999/xlink" x="0px" y="0px"
	 viewBox="0 0 835 1505" style="enable-background:new 0 0 835 1505;" xml:space="preserve">
<g>
	<polygon points="676.95,202.14 404.43,786.26 383.73,832.63 404.43,877.66 704.4,1502.5 831.51,1502.5 508.28,828.65 
		802.42,209.62 802.42,202.14 	"/>
	<path d="M441.38,1302.86h-121.3L78.28,606.56l15.78-23.26h206.07V104.71H3.49L3.87,2.5h319.52c27.13,0,49.3,8.6,66.48,25.76
		c17.16,17.18,25.76,39.35,25.76,66.48v493.54c0,62.61-42.1,93.9-126.3,93.9c-8.31,0-20.49-0.42-36.56-1.25
		c-16.07-0.83-27.69-1.25-34.9-1.25C292.65,886.87,367.15,1094.58,441.38,1302.86"/>
</g>
</svg>
